<svg width="18" height="18" viewBox="0 0 18 18" fill="none" xmlns="http://www.w3.org/2000/svg">
<g clip-path="url(#clip0_1_397)">
<path fill-rule="evenodd" clip-rule="evenodd" d="M16.148 15.352L12.6274 11.8322C14.7472 9.28728 14.4903 5.5252 12.0444 3.29201C9.59837 1.05882 5.82851 1.1445 3.4865 3.4865C1.1445 5.82851 1.05882 9.59837 3.29201 12.0444C5.5252 14.4903 9.28728 14.7472 11.8322 12.6274L15.352 16.148C15.5718 16.3678 15.9282 16.3678 16.148 16.148C16.3678 15.9282 16.3678 15.5718 16.148 15.352V15.352ZM2.8125 7.875C2.8125 5.07906 5.07906 2.8125 7.875 2.8125C10.6709 2.8125 12.9375 5.07906 12.9375 7.875C12.9375 10.6709 10.6709 12.9375 7.875 12.9375C5.08034 12.9344 2.8156 10.6697 2.8125 7.875V7.875Z" fill="#868686"/>
</g>
<defs>
<clipPath id="clip0_1_397">
<rect width="18" height="18" fill="white"/>
</clipPath>
</defs>
</svg>
