<svg width="32" height="32" viewBox="0 0 32 32" fill="none" xmlns="http://www.w3.org/2000/svg">
<g clip-path="url(#clip0_1_214)">
<path d="M27.432 20.407C27.5605 20.1516 27.8762 20.0481 28.1359 20.1744C28.3956 20.3008 28.5008 20.6113 28.3723 20.8667C27.0535 23.4649 25.3792 25.691 23.3484 27.5416C21.3174 29.3925 18.9326 30.8671 16.1975 31.9627C16.0663 32.0138 15.9256 32.0111 15.8039 31.9627C12.7343 30.7328 10.1089 29.0297 7.92881 26.852L7.90968 26.8332L7.90148 26.8238C6.51427 25.4326 5.30879 23.8505 4.28371 22.0734L4.23998 21.9968L4.23315 21.9861C1.64323 17.4577 0.231213 11.6884 0.000291801 4.68275C-0.00927533 4.39914 0.217599 4.16123 0.505974 4.1518C0.581142 4.14911 0.652214 4.16255 0.716448 4.18809C3.36924 5.23655 6.21622 5.35347 8.83193 4.65184C11.4492 3.95018 13.8394 2.42862 15.585 0.199813C15.7613 -0.0246603 16.0893 -0.0663313 16.3189 0.107067C16.3572 0.136638 16.39 0.170241 16.4173 0.206534C18.1613 2.43248 20.5501 3.95143 23.1648 4.65306L23.3247 4.69473C23.3465 4.69876 23.3684 4.70413 23.3903 4.71086C23.7402 4.79823 24.0941 4.87081 24.4495 4.92861L24.4905 4.93667C26.7237 5.29151 29.0704 5.06571 31.2816 4.19065C31.5495 4.08581 31.8543 4.2135 31.9623 4.47696C31.9923 4.54954 32.0033 4.62347 31.9992 4.69606C31.909 7.40857 31.6411 9.93574 31.1983 12.2757C30.7527 14.6266 30.1281 16.7907 29.3245 18.7706C29.2179 19.0341 28.9145 19.1631 28.6466 19.0583C28.3787 18.9534 28.2475 18.655 28.3541 18.3916C29.1304 16.4788 29.7359 14.3779 30.1705 12.0914C30.5627 10.0187 30.8156 7.79419 30.9249 5.41883C28.9103 6.08553 26.8152 6.27104 24.7911 6.01833C24.6312 6.67024 24.4508 7.31275 24.254 7.94721C24.7884 8.02383 25.3282 8.07356 25.8708 8.09507C26.6006 8.12464 27.3346 8.10582 28.0671 8.03458C28.1095 8.02786 28.1505 8.02786 28.1956 8.03189C28.4826 8.06147 28.6904 8.31551 28.6603 8.59912C28.1942 12.8089 27.1596 16.8428 25.2134 20.3121C23.2521 23.8068 20.3711 26.7238 16.2246 28.6646C16.0879 28.7277 15.9239 28.7331 15.7777 28.6646C14.7814 28.1995 13.8575 27.6739 13.0005 27.1C12.2639 26.6053 11.5778 26.0744 10.9395 25.5071C10.3587 25.8875 9.76551 26.2505 9.15871 26.5946C11.094 28.4078 13.3751 29.8528 16.002 30.931C18.5373 29.892 20.7485 28.5115 22.6361 26.7924C24.5714 25.0275 26.1717 22.9009 27.4347 20.4117L27.432 20.407ZM23.7541 5.84584L23.5135 5.79476C22.5104 7.75722 21.3186 9.60675 19.964 11.3218C18.5153 13.1552 16.8752 14.8382 15.0727 16.3409C14.8526 16.525 14.5219 16.4982 14.3346 16.2804C14.1474 16.064 14.1747 15.7387 14.3961 15.5545C16.1374 14.1015 17.7268 12.4711 19.136 10.6886C19.7701 9.88476 20.3674 9.05272 20.925 8.19245C20.0763 7.89943 19.248 7.53652 18.4526 7.11176C17.5957 6.65341 16.7743 6.11709 15.9994 5.50816C14.3388 6.81335 12.4568 7.78383 10.4657 8.39004C8.53449 8.97877 6.49661 9.22477 4.45471 9.10378L4.56678 9.93717C4.63922 10.4372 4.71848 10.9171 4.80049 11.3687C4.85106 11.647 4.66245 11.9158 4.37818 11.9655C4.09527 12.0153 3.82194 11.8298 3.77135 11.5502C3.67842 11.0448 3.59778 10.5542 3.52944 10.0837C3.45974 9.59713 3.3955 9.10113 3.33947 8.59709V8.49224C3.36817 8.20997 3.62374 8.00296 3.91212 8.03121C6.02917 8.23821 8.15442 8.01911 10.1582 7.40886C12.1536 6.80131 14.03 5.80526 15.6594 4.45575C15.8507 4.29445 16.1363 4.28907 16.3359 4.45306C17.1504 5.12782 18.0292 5.71524 18.9532 6.20989C19.765 6.64405 20.6137 7.00832 21.4871 7.29596C21.8356 6.71796 22.1663 6.12789 22.4779 5.52705C20.0083 4.78237 17.7451 3.35757 15.9995 1.3331C14.1572 3.46896 11.738 4.93932 9.10725 5.6437C6.52005 6.33728 3.72643 6.29158 1.07504 5.41519C1.36752 11.7099 2.65223 16.9386 4.92932 21.0961C5.55939 20.8555 6.18123 20.5974 6.79352 20.3191C6.64318 20.0517 6.49831 19.7801 6.35753 19.5046C6.12519 19.0476 5.90787 18.5878 5.71106 18.1295C5.59899 17.8687 5.72199 17.5663 5.98714 17.4547C6.25228 17.3445 6.55979 17.4655 6.67322 17.7263C6.87003 18.1806 7.07502 18.6215 7.29097 19.0462C7.43311 19.3245 7.58208 19.6 7.73651 19.8742C8.06589 19.7116 8.3939 19.5449 8.71781 19.3742C10.0791 18.6497 11.3857 17.8338 12.6253 16.9345C12.8576 16.7665 13.187 16.8163 13.3565 17.0448C13.5273 17.2733 13.4767 17.5972 13.2444 17.7639C11.9665 18.69 10.6203 19.5314 9.21517 20.2801C8.00699 20.9227 6.74959 21.498 5.44975 21.9993C6.30532 23.4107 7.2839 24.689 8.38819 25.8368C10.8865 24.4442 13.1595 22.7425 15.1591 20.7922C17.2761 18.7276 19.0924 16.3808 20.5507 13.8255C20.6929 13.5781 21.0113 13.4894 21.2642 13.6279C21.5157 13.7677 21.6059 14.0808 21.4651 14.3295C19.959 16.9654 18.0838 19.3875 15.8971 21.522C14.6383 22.7492 13.2771 23.881 11.8227 24.9012C12.3721 25.3757 12.9612 25.826 13.5872 26.2467C14.3334 26.7468 15.137 27.2078 15.9981 27.6245C19.8058 25.7871 22.4694 23.0651 24.2927 19.815C26.0721 16.6442 27.0617 12.9639 27.5441 9.10615C26.9701 9.13976 26.3975 9.14513 25.8261 9.12228C25.1879 9.09674 24.5524 9.03491 23.9237 8.93813L23.9059 8.98786C23.5109 10.1143 23.0531 11.2192 22.5351 12.2958C22.4121 12.5526 22.0991 12.6628 21.838 12.5418C21.577 12.4209 21.4649 12.113 21.5879 11.8563C22.0854 10.82 22.5296 9.75 22.9137 8.65317C23.2376 7.72973 23.5178 6.79555 23.7528 5.84926L23.7541 5.84584ZM4.25105 13.7682C4.18272 13.4926 4.35356 13.213 4.63375 13.1458C4.91393 13.0786 5.19821 13.2466 5.26654 13.5222C5.35401 13.8717 5.45379 14.2346 5.56039 14.6056C5.66563 14.9672 5.77496 15.3193 5.88703 15.6567C5.97587 15.9269 5.82553 16.2186 5.55082 16.3059C5.27611 16.3933 4.97953 16.2455 4.8907 15.9753C4.76906 15.6083 4.65562 15.2454 4.55175 14.8878C4.44925 14.533 4.34674 14.158 4.24971 13.7682L4.25105 13.7682Z" fill="#AAAAAA"/>
</g>
<defs>
<clipPath id="clip0_1_214">
<rect width="32" height="32" fill="white"/>
</clipPath>
</defs>
</svg>
